<svg width="40" height="40" viewBox="0 0 40 40" fill="none" xmlns="http://www.w3.org/2000/svg">
<path fill-rule="evenodd" clip-rule="evenodd" d="M20 40C31.0457 40 40 31.0457 40 20C40 8.9543 31.0457 0 20 0C8.9543 0 0 8.9543 0 20C0 31.0457 8.9543 40 20 40ZM19.7649 13.2158C20.7546 13.2158 21.9953 12.5261 22.7341 11.6065C23.4033 10.7731 23.8912 9.60928 23.8912 8.44543C23.8912 8.28737 23.8772 8.12932 23.8494 8C22.7481 8.04311 21.4238 8.76154 20.6292 9.72423C20.0018 10.457 19.4303 11.6065 19.4303 12.7847C19.4303 12.9572 19.4582 13.1296 19.4721 13.1871C19.5418 13.2014 19.6533 13.2158 19.7649 13.2158ZM16.2798 30.6023C16.9186 30.6023 17.3894 30.3939 17.8861 30.1739C18.441 29.9283 19.0283 29.6683 19.9182 29.6683C20.8034 29.6683 21.3319 29.9096 21.8433 30.143C22.3224 30.3617 22.7865 30.5736 23.5148 30.5736C24.9925 30.5736 25.9822 29.1654 26.9162 27.786C27.8678 26.3475 28.3113 24.9328 28.4043 24.636L28.4044 24.6359C28.4135 24.6066 28.4193 24.5883 28.4218 24.5818C28.3242 24.5531 25.4943 23.3605 25.4943 20.0126C25.4943 17.3061 27.4338 15.9864 27.7974 15.739C27.8237 15.7211 27.8418 15.7088 27.8502 15.7021C26.3726 13.518 24.1282 13.4605 23.5148 13.4605C22.5481 13.4605 21.6855 13.8119 20.9657 14.1051C20.4503 14.315 20.0081 14.4951 19.6533 14.4951C19.2443 14.4951 18.7774 14.302 18.2587 14.0874C17.6108 13.8194 16.8821 13.518 16.0846 13.518C13.3523 13.518 10.5782 15.8457 10.5782 20.2425C10.5782 22.9726 11.6098 25.8607 12.8784 27.7286C13.9657 29.3091 14.9137 30.6023 16.2798 30.6023Z" fill="#4F4F4F"/>
</svg>
