<svg width="30" height="30" viewBox="0 0 30 30" fill="none" xmlns="http://www.w3.org/2000/svg">
<circle cx="15" cy="15" r="15" fill="#9B51E0"/>
<path d="M14.9999 0C6.72901 0 0 6.72886 0 14.9999C0 23.271 6.72901 30 14.9999 30C23.2708 30 29.9998 23.271 29.9998 14.9999C29.9998 6.72886 23.271 0 14.9999 0ZM23.6131 12.4663L14.1895 21.89C13.7888 22.2907 13.2561 22.5112 12.6895 22.5112C12.1229 22.5112 11.5903 22.2907 11.1896 21.89L6.3867 17.0871C5.98601 16.6864 5.76531 16.1538 5.76531 15.5872C5.76531 15.0204 5.98601 14.4878 6.3867 14.0871C6.78724 13.6864 7.31988 13.4657 7.88665 13.4657C8.45325 13.4657 8.98605 13.6864 9.38659 14.0872L12.6894 17.3898L20.6129 9.46626C21.0136 9.06557 21.5463 8.84503 22.1129 8.84503C22.6795 8.84503 23.2121 9.06557 23.6128 9.46626C24.4402 10.2936 24.4402 11.6392 23.6131 12.4663Z" fill="white"/>
</svg>
