<svg width="40" height="40" viewBox="0 0 40 40" fill="none" xmlns="http://www.w3.org/2000/svg">
<path fill-rule="evenodd" clip-rule="evenodd" d="M20 40C31.0457 40 40 31.0457 40 20C40 8.9543 31.0457 0 20 0C8.9543 0 0 8.9543 0 20C0 31.0457 8.9543 40 20 40ZM20 8C13.3832 8 8 13.3832 8 20C8 26.6168 13.3832 32 20 32C26.6168 32 32 26.6168 32 20V17.7143H20V22.2857H27.0688C26.1026 25.2671 23.2991 27.4286 20 27.4286C15.9039 27.4286 12.5714 24.0961 12.5714 20C12.5714 15.9039 15.9039 12.5714 20 12.5714C21.6545 12.5714 23.2197 13.1031 24.5262 14.1088L27.3147 10.4864C25.2017 8.85977 22.6723 8 20 8Z" fill="#4F4F4F"/>
</svg>
